<?xml version="1.0" encoding="UTF-8"?>
<svg id="_图层_1" data-name="图层_1" xmlns="http://www.w3.org/2000/svg" version="1.1" viewBox="0 0 354 400">
  <!-- Generator: Adobe Illustrator 29.0.0, SVG Export Plug-In . SVG Version: 2.1.0 Build 186)  -->
  <defs>
    <style>
      .st0 {
        fill: #659ad2;
      }

      .st1 {
        fill: #fff;
      }

      .st2 {
        fill: #00599c;
      }

      .st3 {
        fill: #004482;
      }
    </style>
  </defs>
  <path class="st2" d="M341.5,295c2.7-4.6,4.3-9.8,4.3-14.4V119.4c0-4.6-1.6-9.8-4.3-14.4l-164.5,95,164.5,95Z"/>
  <path class="st3" d="M191.6,386.5l139.6-80.6c4-2.3,7.7-6.3,10.3-10.9l-164.5-95L12.5,295c2.7,4.6,6.3,8.6,10.3,10.9l139.6,80.6c8,4.6,21.2,4.6,29.2,0h0Z"/>
  <path class="st0" d="M341.5,105c-2.7-4.6-6.3-8.6-10.3-10.9L191.6,13.5c-8-4.6-21.2-4.6-29.2,0L22.8,94.1c-8,4.6-14.6,16-14.6,25.3v161.2c0,4.6,1.6,9.8,4.3,14.4l164.5-95,164.5-95Z"/>
  <g>
    <path class="st1" d="M177,312.6c-62.1,0-112.6-50.5-112.6-112.6s50.5-112.6,112.6-112.6,77.4,21.6,97.5,56.2l-48.7,28.2c-10-17.4-28.7-28.2-48.8-28.2-31,0-56.3,25.2-56.3,56.3s25.2,56.3,56.3,56.3,38.7-10.8,48.8-28.2l48.7,28.2c-20.1,34.7-57.4,56.2-97.5,56.2Z"/>
    <path class="st1" d="M289.6,193.7h-12.5v-12.5h-12.5v12.5h-12.5v12.5h12.5v12.5h12.5v-12.5h12.5v-12.5Z"/>
    <path class="st1" d="M336.5,193.7h-12.5v-12.5h-12.5v12.5h-12.5v12.5h12.5v12.5h12.5v-12.5h12.5v-12.5Z"/>
  </g>
</svg>