<?xml version="1.0" encoding="UTF-8"?>
<svg id="_图层_1" data-name="图层_1" xmlns="http://www.w3.org/2000/svg" version="1.1" viewBox="0 0 2094.5 2477.7">
  <!-- Generator: Adobe Illustrator 29.0.0, SVG Export Plug-In . SVG Version: 2.1.0 Build 186)  -->
  <defs>
    <style>
      .st0 {
        fill: #fff;
      }
    </style>
  </defs>
  <path class="st0" d="M1831.6,1032.9c2.3-31.5,4.5-65.3,4.5-96.8C1836.1,418.5,1482.8,0,1046.3,0S256.5,418.5,256.5,936.1s2.3,67.5,4.5,101.3C128.2,1302.9-69.8,1863.2,24.7,2032c11.3,20.3,126-90,218.3-265.5,2.3,195.8,101.3,373.5,261,497.3-130.5,22.5-249.8,105.8-240.8,148.5,15.8,72,335.3,87.8,726.8,31.5,2.3,0,4.5,0,9-2.3,15.8,0,31.5,2.3,47.3,2.3s31.5,0,47.3-2.3c2.3,0,4.5,0,9,2.3,393.8,56.3,711.1,40.5,726.8-31.5,9-42.8-110.3-126-240.8-148.5,159.8-123.8,258.8-303.8,261-501.8,90,180,209.3,292.5,220.5,270,94.6-168.8-108-735.9-238.5-999.1h0Z"/>
</svg>