<?xml version="1.0" encoding="UTF-8"?>
<svg id="_图层_1" data-name="图层_1" xmlns="http://www.w3.org/2000/svg" version="1.1" viewBox="0 0 1080 1080">
  <!-- Generator: Adobe Illustrator 29.0.0, SVG Export Plug-In . SVG Version: 2.1.0 Build 186)  -->
  <defs>
    <style>
      .st0 {
        fill: #14ffec;
      }
    </style>
  </defs>
  <path class="st0" d="M321.84,792.73c-20.72-30.73-31.16-26.28-13.17-58.63,17.99-32.34,59.75-88.45,111.36-148.42.61-.7,1.21-1.4,1.81-2.1,12.62-14.62-6.2-34.79-22.03-23.62-13.74,9.7-28.05,19.74-42.93,30.11-33.9,23.58-64.38,43.38-91.46,59.41-28.06,17.07-58.76,29.72-92.1,37.96-33.34,8.24-60.65,6.98-81.93-3.77-11.35-5.73-18.17-13.25-20.47-22.55-7.83-31.68,12.29-78.4,60.34-140.15,42.85-55.13,106.21-114,190.05-176.6,83.26-62.44,144.19-98.44,182.8-107.98,9.35-2.31,17.92-2.83,25.69-1.54,7.18,1.43,11.3,4.28,12.35,8.55,1.74,7.04-2.68,14.27-13.26,21.68-8.49,5.84-21.22,13.38-38.17,22.63-30.6,16.9-67.64,41.52-111.16,73.88-69.14,51.76-121.84,102.26-158.08,151.49-39.95,54.42-57.76,90.3-53.47,107.64.93,3.77,4.4,6.52,10.41,8.23,8.08,2.54,17.95,2.37,29.66-.52,22.23-5.49,57.97-24.06,107.27-55.71,59.07-37.27,106.18-70.11,141.37-98.55,102.53-82.42,178.62-147.5,228.27-195.24,47.56-46.16,87.95-83.61,121.2-112.37,28.12-24.29,50.98-38.6,68.53-42.94,11.7-2.89,22.25-2.83,31.7.17,7.21,2.36,82.82,47.52,90.19,54.14.55.49,1.14.92,1.76,1.33,48.71,31.78,104.19,62.14-62.7,97.68-175.39,34.34-213,75.44-310.82,158.5-.44.37-.87.78-1.26,1.19-65.09,68.42-94.86,76.23-102.98,155.82-9.29,90.98,70.38,148.87,52.62,249.17-31.96,180.55-147.58,53.38-177.26,28.55"/>
</svg>