<?xml version="1.0" encoding="UTF-8"?>
<svg id="_图层_1" data-name="图层_1" xmlns="http://www.w3.org/2000/svg" version="1.1" viewBox="0 0 1080 1080">
  <!-- Generator: Adobe Illustrator 29.0.0, SVG Export Plug-In . SVG Version: 2.1.0 Build 186)  -->
  <defs>
    <style>
      .st0 {
        fill: #fff;
      }

      .st1 {
        fill: #14ffec;
      }
    </style>
  </defs>
  <g>
    <path class="st1" d="M277.63,656.69c8.44-9.93-4.26-23.74-14.86-16.16-9.21,6.58-18.79,13.38-28.76,20.42-22.71,15.99-43.14,29.41-61.28,40.26-18.8,11.56-39.39,20.11-61.77,25.63s-40.73,4.6-55.05-2.78c-7.64-3.94-12.24-9.08-13.81-15.43-5.34-21.62,8.05-53.41,40.17-95.38,28.64-37.47,71.05-77.44,127.21-119.89,55.77-42.35,96.6-66.73,122.51-73.13,6.27-1.55,12.03-1.88,17.25-.99,4.83.99,7.6,2.95,8.32,5.86,1.19,4.8-1.76,9.72-8.85,14.75-5.69,3.96-14.22,9.07-25.58,15.33-20.51,11.44-45.33,28.13-74.48,50.07-46.31,35.1-81.58,69.39-105.8,102.86-26.69,36.99-38.56,61.4-35.64,73.24.64,2.57,2.97,4.45,7.02,5.64,5.43,1.75,12.06,1.66,19.92-.28,14.92-3.69,38.88-16.25,71.91-37.7,39.58-25.25,71.14-47.52,94.71-66.81,68.66-55.92,119.61-100.08,152.84-132.5,31.83-31.34,58.86-56.77,81.12-76.29,18.83-16.48,34.14-26.18,45.92-29.09,7.85-1.94,14.94-1.87,21.29.2,4.85,1.63,55.76,32.61,60.73,37.15.37.34.77.63,1.18.91,32.8,21.79,70.15,42.63-41.86,66.43-117.73,22.95-142.89,50.87-208.38,107.24-.29.25-.58.53-.85.81-43.54,46.47-63.52,51.72-68.77,105.95-6,62,47.67,101.67,36,170-21,123-99,36-119,19s-24-19-35-31-1-1-15-22-21-18-9-40,39.91-60.14,74.42-100.89c.41-.48.81-.95,1.21-1.43Z"/>
    <path class="st0" d="M743,617c-7,15-21.82,35.02-36,43-16,9-28,12-70,12-21.02,0-40-4-60-12-12.81-5.12-16-22-15.88-33.35.05-5.06-7.09-6.74-10.4-2.91-25.03,28.96-70.55,68.67-105.47,76.7-75.71,18.15-89.71-30.46-43.21-91.44,38.45-53.12,108.56-103.83,174.7-119.88,14.06-3.1,34.86-6.76,48.49-2.56,7.57,2.33,8.64,12.61,1.69,16.42-.16.09-.31.17-.47.26-8.23,4.5-4.86,17.05,4.52,16.82,6.18-.15,10.89-.04,11.13.97.89,3.6-3.15,10.88-12.1,21.83-15.09,19.8-62.34,88.73-16.27,96.03,132.58,29.89,111.28-66.98,134.27-64.89,11,1,2,28-5,43ZM577.7,520.4c-60.32.29-147.74,90.02-145.53,135.85.07,1.37.42,2.72,1.11,3.91,14.06,24.14,66.15-13.6,83.98-36.59.11-.14.22-.27.34-.41,11.72-13.09,25.63-31.49,41.74-55.21,12.83-17.45,16.53-24.57,24.51-31.99,6.03-5.61,2.09-15.6-6.15-15.56Z"/>
    <path class="st0" d="M772,344c21-21,55-44,70-28s-4,39-27,60c-16.71,15.26-26.84,29.6-34.78,43.09-1.62,2.75,1.91,5.62,4.27,3.47,81.76-74.51,198.49-184.15,227.74-133.16,2.14,8.69-4.14,21.14-18.85,37.36-80.35,88.31-113.52,128.05-101.37,177.24,3.93,15.91,10,43,33,44s39.07-23.76,40-20c.86,3.47-4.47,34.13-6,41-2,9-8,45-15,63-7.72,19.85-69,24-107-21-34.61-40.99-20.53-118.33,16.54-186.36,2.53-4.64-3.03-9.43-7.24-6.23-54.23,41.15-100.74,96.98-139.52,167.49-14.94,25.39-39.13,41.38-65.17,34.98-37.33-12.67,3.68-72.22,48.22-158.81,37.24-60.47,63.73-99.63,82.17-118.07Z"/>
  </g>
  <path d="M548,142c53.74,0,105.86,10.52,154.91,31.26,47.39,20.04,89.96,48.75,126.52,85.31,36.56,36.56,65.26,79.13,85.31,126.52,20.74,49.05,31.26,101.17,31.26,154.91s-10.52,105.86-31.26,154.91c-20.04,47.39-48.75,89.96-85.31,126.52-36.56,36.56-79.13,65.26-126.52,85.31-49.05,20.74-101.17,31.26-154.91,31.26-46.68,0-92.38-8-135.82-23.77-41.99-15.24-80.9-37.36-115.67-65.75-34.49-28.15-63.83-61.59-87.22-99.39-23.82-38.5-40.74-80.39-50.29-124.52-3.9-18.02-6.56-36.53-7.92-55-.72-9.78-1.08-19.73-1.08-29.58,0-53.74,10.52-105.86,31.26-154.91,20.04-47.39,48.75-89.96,85.31-126.52,36.56-36.56,79.13-65.26,126.52-85.31,49.05-20.74,101.17-31.26,154.91-31.26M548,109c-238.03,0-431,192.97-431,431,0,10.76.39,21.43,1.17,32,1.49,20.28,4.38,40.16,8.58,59.56,41.98,194.05,214.64,339.44,421.25,339.44,238.03,0,431-192.97,431-431S786.03,109,548,109h0Z"/>
  <text/>
  <path d="M145.22,554.96c-7.14,6.86-14.63,13.33-22.46,19.4-.65.5-.52,1.59,0,2.12.63.64,1.48.49,2.12,0,7.82-6.06,15.32-12.54,22.46-19.4,1.39-1.34-.73-3.46-2.12-2.12h0Z"/>
  <path class="st1" d="M150.05,541.8s-7.05,5.2-16.05,14.2-15.83,16-15.83,16c0,0-.17,14,.83,25s7.75,34.56,7.75,34.56l27.25-38.56"/>
  <polygon class="st0" points="913.75 311.94 887.41 332.11 899 373 923.52 407.72 947.57 378.13 936 339 913.75 311.94"/>
</svg>